<svg width="605" height="126" viewBox="0 0 605 126" fill="none" xmlns="http://www.w3.org/2000/svg">
<g clip-path="url(#clip0_1410_9721)">
<path d="M62.0747 33.1374C67.2814 38.4961 69.8873 46.4507 69.8873 56.9857V98.2539H50.0643V60.2C50.0643 54.4812 48.878 50.2175 46.5104 47.4038C44.1377 44.59 40.7105 43.1857 36.2187 43.1857C31.2199 43.1857 27.2401 44.8131 24.2742 48.073C21.3033 51.3379 19.8229 56.1796 19.8229 62.6132V98.2539H0V32.1994L18.9357 23.1549V34.6127C21.5568 31.5759 24.8167 29.2285 28.7154 27.5808C32.6141 25.9281 36.893 25.1017 41.5521 25.1017C50.0187 25.1017 56.8629 27.7836 62.0747 33.1374Z" fill="white"/>
<path d="M84.6353 32.2146V98.2691H104.448V23.1701L84.6353 32.2146Z" fill="white"/>
<path d="M104.448 0.178528V17.1269L84.6353 26.1714V9.22306L104.448 0.178528Z" fill="white"/>
<path d="M203.624 9.24335V26.1917L223.436 17.1117V0.16333L203.624 9.24335Z" fill="white"/>
<path d="M181.768 33.1374C186.974 38.4961 189.58 46.4507 189.58 56.9857V98.2539H169.757V60.2C169.757 54.4812 168.571 50.2175 166.203 47.4038C163.831 44.59 160.404 43.1857 155.912 43.1857C150.913 43.1857 146.933 44.8131 143.972 48.073C141.001 51.3379 139.521 56.1796 139.521 62.6132V98.2539H119.698V32.1994L138.634 23.1549V34.6127C141.255 31.5759 144.515 29.2285 148.413 27.5808C152.312 25.9281 156.591 25.1017 161.25 25.1017C169.717 25.1017 176.561 27.7836 181.773 33.1374" fill="white"/>
<path d="M223.442 23.3475V98.1271C223.442 106.523 221.165 113.154 216.643 118.031C212.105 122.893 205.778 125.327 197.641 125.327C190.691 125.327 185.408 123.983 181.763 121.311L187.091 106.168C189.377 107.866 192.171 108.703 195.476 108.703C198.022 108.703 200.004 107.841 201.449 106.097C202.889 104.353 203.608 101.742 203.608 98.2539V32.4225L223.436 23.3475H223.442Z" fill="white"/>
<path d="M307.93 32.1994V98.259H288.999V89.9496C284.086 96.2057 276.974 99.3287 267.655 99.3287C261.217 99.3287 255.391 97.8128 250.185 94.776C244.973 91.7341 240.887 87.4045 237.921 81.777C234.955 76.1496 233.475 69.6298 233.475 62.2177C233.475 54.8057 234.955 48.2809 237.921 42.6584C240.887 37.031 244.973 32.7013 250.185 29.6645C255.391 26.6277 261.217 25.1068 267.655 25.1068C276.38 25.1068 283.199 28.0118 288.112 33.8167V23.16L307.935 32.2045L307.93 32.1994ZM283.534 76.7529C286.839 73.1381 288.487 68.2914 288.487 62.2177C288.487 56.1441 286.839 51.2923 283.534 47.6775C280.233 44.0628 276.081 42.2529 271.082 42.2529C266.084 42.2529 261.805 44.0628 258.504 47.6775C255.199 51.2923 253.551 56.1441 253.551 62.2177C253.551 68.2914 255.199 73.1381 258.504 76.7529C261.805 80.3676 266.002 82.1776 271.082 82.1776C276.162 82.1776 280.233 80.3676 283.534 76.7529Z" fill="white"/>
<path d="M532.705 43.9664C529.658 46.6433 527.792 50.3088 527.118 54.9527H560.786C560.107 50.3949 558.241 46.7548 555.194 44.0323C552.147 41.3099 548.416 39.9461 544.015 39.9461C539.615 39.9461 535.757 41.2896 532.705 43.9715M574.576 86.7606C568.143 94.5073 558.768 98.3654 546.418 98.3654C538.728 98.3654 531.893 96.7684 525.977 93.5998C520.03 90.4363 515.457 86.0357 512.253 80.398C509.024 74.7908 507.421 68.3978 507.421 61.2545C507.421 54.1111 509.024 47.8398 512.197 42.1717C515.371 36.5037 519.716 32.0727 525.262 28.9091C530.809 25.7456 537.014 24.1435 543.873 24.1435C550.733 24.1435 556.624 25.6492 562.054 28.6962C567.483 31.7381 571.717 36.0778 574.835 41.7459C577.922 47.4443 579.468 54.0148 579.468 61.5232C579.468 61.7969 579.327 63.6626 579.098 67.1304H527.381C528.294 71.6222 530.499 75.1508 533.987 77.7415C537.445 80.3372 541.764 81.5996 546.936 81.5996C550.51 81.5996 553.653 81.0571 556.401 79.9418C557.06 79.6731 557.714 79.3689 558.348 79.0089L574.586 86.7556L574.576 86.7606Z" fill="#00A6CE"/>
<path d="M342.557 93.5643C335.144 89.3665 329.345 83.5819 325.142 76.2155C320.949 68.844 318.855 60.565 318.855 51.3633C318.855 42.1616 320.949 33.8775 325.142 26.506C329.34 19.1396 335.139 13.355 342.557 9.15717C349.969 4.95937 358.288 2.86047 367.525 2.86047C376.762 2.86047 385.057 4.95937 392.428 9.15717C399.795 13.36 405.6 19.1396 409.838 26.506C414.076 33.8775 416.19 42.1616 416.19 51.3633C416.19 60.565 414.071 68.844 409.838 76.2155C405.6 83.5819 399.8 89.3716 392.428 93.5643C385.057 97.7672 376.757 99.8661 367.525 99.8661C358.293 99.8661 349.969 97.7672 342.557 93.5643ZM381.756 77.5539C385.99 75.0089 389.315 71.46 391.734 66.9022C394.147 62.3445 395.353 57.1682 395.353 51.3582C395.353 45.5482 394.142 40.372 391.734 35.8142C389.32 31.2564 385.99 27.7076 381.756 25.1575C377.518 22.6175 372.778 21.3399 367.525 21.3399C362.273 21.3399 357.528 22.6175 353.294 25.1575C349.056 27.7025 345.735 31.2564 343.322 35.8142C340.909 40.372 339.697 45.5482 339.697 51.3582C339.697 57.1682 340.909 62.3445 343.322 66.9022C345.735 71.46 349.056 75.0038 353.294 77.5539C357.533 80.0989 362.273 81.3715 367.525 81.3715C372.778 81.3715 377.518 80.0989 381.756 77.5539Z" fill="#00A6CE"/>
<path d="M489.19 33.1374C494.397 38.4961 497.003 46.4507 497.003 56.9857V98.2539H477.18V60.2C477.18 54.4812 475.994 50.2175 473.626 47.4038C471.254 44.59 467.826 43.1857 463.334 43.1857C458.336 43.1857 454.356 44.8131 451.39 48.073C448.419 51.3379 446.939 56.1796 446.939 62.6132V98.2539H427.116V32.1994L446.052 23.1549V34.6127C448.673 31.5759 451.932 29.2285 455.831 27.5808C459.725 25.9281 464.009 25.1017 468.668 25.1017C477.134 25.1017 483.979 27.7836 489.19 33.1374Z" fill="#00A6CE"/>
<path d="M604.245 84.2866C603.738 83.08 603.038 82.0204 602.136 81.1078C601.233 80.1953 600.168 79.4906 598.942 78.9836C597.715 78.4817 596.391 78.2282 594.962 78.2282C593.532 78.2282 592.209 78.4867 590.982 78.9988C589.755 79.5108 588.685 80.2308 587.773 81.1535C586.86 82.0762 586.145 83.1459 585.633 84.3626C585.121 85.5794 584.863 86.8925 584.863 88.2968C584.863 89.7011 585.116 91.0142 585.618 92.231C586.12 93.4477 586.83 94.5175 587.742 95.4402C588.655 96.3629 589.72 97.0777 590.936 97.5948C592.153 98.1069 593.471 98.3654 594.901 98.3654C596.331 98.3654 597.649 98.1069 598.866 97.5948C600.082 97.0828 601.152 96.3629 602.075 95.4402C602.997 94.5175 603.712 93.4427 604.229 92.2208C604.741 90.9939 605 89.6707 605 88.241C605 86.8114 604.746 85.4983 604.245 84.2917M602.719 91.6074C602.298 92.6518 601.705 93.5593 600.939 94.3299C600.168 95.1005 599.271 95.7038 598.242 96.1398C597.218 96.5758 596.092 96.7938 594.881 96.7938C593.669 96.7938 592.599 96.5809 591.575 96.1499C590.546 95.7241 589.654 95.1208 588.893 94.34C588.133 93.5593 587.545 92.6568 587.124 91.6327C586.703 90.6036 586.495 89.4933 586.495 88.2968C586.495 87.1003 586.708 85.99 587.139 84.9609C587.57 83.9317 588.153 83.0293 588.908 82.2536C589.659 81.4729 590.551 80.8696 591.59 80.4437C592.625 80.0178 593.755 79.7998 594.967 79.7998C596.179 79.7998 597.299 80.0128 598.318 80.4437C599.332 80.8696 600.219 81.4678 600.97 82.2283C601.72 82.9887 602.303 83.881 602.724 84.9102C603.139 85.9394 603.352 87.0496 603.352 88.2461C603.352 89.4426 603.144 90.5681 602.724 91.6125" fill="#00A6CE"/>
<path d="M598.871 89.4628C599.707 88.7784 600.128 87.8202 600.128 86.5832C600.128 85.3462 599.707 84.4336 598.871 83.7289C598.034 83.0242 596.873 82.6744 595.393 82.6744H590.718V93.9091H593.172V90.4869H595.398C595.509 90.4869 595.585 90.4515 595.692 90.4515L597.938 93.9091H600.392L597.846 89.9901C598.212 89.8329 598.592 89.6961 598.876 89.4578M593.147 88.5756V84.611H595.256C596.052 84.611 596.67 84.7834 597.106 85.1231C597.542 85.4628 597.76 85.9495 597.76 86.5781C597.76 87.2068 597.542 87.6935 597.106 88.0484C596.67 88.3982 596.052 88.5756 595.256 88.5756H593.147Z" fill="#00A6CE"/>
</g>
<defs>
<clipPath id="clip0_1410_9721">
<rect width="605" height="125.163" fill="white" transform="translate(0 0.16333)"/>
</clipPath>
</defs>
</svg>
